<mxfile host="app.diagrams.net" agent="Mozilla/5.0 (Windows NT 10.0; Win64; x64) AppleWebKit/537.36 (KHTML, like Gecko) Chrome/130.0.0.0 Safari/537.36 Edg/130.0.0.0" version="24.8.4">
  <diagram name="Страница — 1" id="CtuJkn4GlVtelXUDmYB0">
    <mxGraphModel dx="517" dy="1605" grid="1" gridSize="10" guides="1" tooltips="1" connect="1" arrows="1" fold="1" page="1" pageScale="1" pageWidth="827" pageHeight="1169" math="0" shadow="0">
      <root>
        <mxCell id="0" />
        <mxCell id="1" parent="0" />
        <mxCell id="OM-8t7XEtbAk3aILjfOQ-1" value="&lt;div style=&quot;&quot;&gt;&lt;span style=&quot;background-color: initial;&quot;&gt;User&lt;/span&gt;&lt;/div&gt;" style="rounded=0;whiteSpace=wrap;html=1;align=center;" vertex="1" parent="1">
          <mxGeometry x="84" y="-160" width="220" height="60" as="geometry" />
        </mxCell>
        <mxCell id="OM-8t7XEtbAk3aILjfOQ-2" value="-----" style="rounded=0;whiteSpace=wrap;html=1;" vertex="1" parent="1">
          <mxGeometry x="304" y="-160" width="200" height="60" as="geometry" />
        </mxCell>
        <mxCell id="OM-8t7XEtbAk3aILjfOQ-3" value="Объект пользователь" style="rounded=0;whiteSpace=wrap;html=1;align=center;" vertex="1" parent="1">
          <mxGeometry x="504" y="-160" width="250" height="60" as="geometry" />
        </mxCell>
        <mxCell id="OM-8t7XEtbAk3aILjfOQ-4" value="&lt;b&gt;&lt;font style=&quot;font-size: 13px;&quot;&gt;Родительская сущность&lt;/font&gt;&lt;/b&gt;" style="rounded=0;whiteSpace=wrap;html=1;" vertex="1" parent="1">
          <mxGeometry x="84" y="-220" width="220" height="60" as="geometry" />
        </mxCell>
        <mxCell id="OM-8t7XEtbAk3aILjfOQ-5" value="&lt;b&gt;&lt;font style=&quot;font-size: 13px;&quot;&gt;Атрибут&lt;/font&gt;&lt;/b&gt;" style="rounded=0;whiteSpace=wrap;html=1;" vertex="1" parent="1">
          <mxGeometry x="304" y="-220" width="200" height="60" as="geometry" />
        </mxCell>
        <mxCell id="OM-8t7XEtbAk3aILjfOQ-6" value="&lt;b&gt;&lt;font style=&quot;font-size: 13px;&quot;&gt;Описание&lt;/font&gt;&lt;/b&gt;" style="rounded=0;whiteSpace=wrap;html=1;" vertex="1" parent="1">
          <mxGeometry x="504" y="-220" width="250" height="60" as="geometry" />
        </mxCell>
        <mxCell id="OM-8t7XEtbAk3aILjfOQ-7" value="" style="rounded=0;whiteSpace=wrap;html=1;" vertex="1" parent="1">
          <mxGeometry x="84" y="-100" width="220" height="60" as="geometry" />
        </mxCell>
        <mxCell id="OM-8t7XEtbAk3aILjfOQ-8" value="FirstName" style="rounded=0;whiteSpace=wrap;html=1;" vertex="1" parent="1">
          <mxGeometry x="304" y="-100" width="200" height="60" as="geometry" />
        </mxCell>
        <mxCell id="OM-8t7XEtbAk3aILjfOQ-9" value="Имя" style="rounded=0;whiteSpace=wrap;html=1;align=center;" vertex="1" parent="1">
          <mxGeometry x="504" y="-100" width="250" height="60" as="geometry" />
        </mxCell>
        <mxCell id="OM-8t7XEtbAk3aILjfOQ-10" value="" style="rounded=0;whiteSpace=wrap;html=1;fontStyle=1" vertex="1" parent="1">
          <mxGeometry x="84" y="80" width="220" height="60" as="geometry" />
        </mxCell>
        <mxCell id="OM-8t7XEtbAk3aILjfOQ-11" value="UserName" style="rounded=0;whiteSpace=wrap;html=1;" vertex="1" parent="1">
          <mxGeometry x="304" y="80" width="200" height="60" as="geometry" />
        </mxCell>
        <mxCell id="OM-8t7XEtbAk3aILjfOQ-12" value="уникальное имя входа (ник)" style="rounded=0;whiteSpace=wrap;html=1;" vertex="1" parent="1">
          <mxGeometry x="504" y="80" width="250" height="60" as="geometry" />
        </mxCell>
        <mxCell id="OM-8t7XEtbAk3aILjfOQ-13" value="" style="rounded=0;whiteSpace=wrap;html=1;fontStyle=1" vertex="1" parent="1">
          <mxGeometry x="84" y="260" width="220" height="60" as="geometry" />
        </mxCell>
        <mxCell id="OM-8t7XEtbAk3aILjfOQ-14" value="PhoneNumber" style="rounded=0;whiteSpace=wrap;html=1;" vertex="1" parent="1">
          <mxGeometry x="304" y="260" width="200" height="60" as="geometry" />
        </mxCell>
        <mxCell id="OM-8t7XEtbAk3aILjfOQ-15" value="Номер телефона" style="rounded=0;whiteSpace=wrap;html=1;" vertex="1" parent="1">
          <mxGeometry x="504" y="260" width="250" height="60" as="geometry" />
        </mxCell>
        <mxCell id="OM-8t7XEtbAk3aILjfOQ-16" value="" style="rounded=0;whiteSpace=wrap;html=1;fontStyle=1" vertex="1" parent="1">
          <mxGeometry x="84" y="140" width="220" height="60" as="geometry" />
        </mxCell>
        <mxCell id="OM-8t7XEtbAk3aILjfOQ-17" value="Gender" style="rounded=0;whiteSpace=wrap;html=1;" vertex="1" parent="1">
          <mxGeometry x="304" y="140" width="200" height="60" as="geometry" />
        </mxCell>
        <mxCell id="OM-8t7XEtbAk3aILjfOQ-18" value="Пол" style="rounded=0;whiteSpace=wrap;html=1;" vertex="1" parent="1">
          <mxGeometry x="504" y="140" width="250" height="60" as="geometry" />
        </mxCell>
        <mxCell id="OM-8t7XEtbAk3aILjfOQ-19" value="" style="rounded=0;whiteSpace=wrap;html=1;fontStyle=1" vertex="1" parent="1">
          <mxGeometry x="84" y="200" width="220" height="60" as="geometry" />
        </mxCell>
        <mxCell id="OM-8t7XEtbAk3aILjfOQ-20" value="Age" style="rounded=0;whiteSpace=wrap;html=1;" vertex="1" parent="1">
          <mxGeometry x="304" y="200" width="200" height="60" as="geometry" />
        </mxCell>
        <mxCell id="OM-8t7XEtbAk3aILjfOQ-21" value="Возраст" style="rounded=0;whiteSpace=wrap;html=1;" vertex="1" parent="1">
          <mxGeometry x="504" y="200" width="250" height="60" as="geometry" />
        </mxCell>
        <mxCell id="OM-8t7XEtbAk3aILjfOQ-22" value="&lt;font style=&quot;font-size: 19px;&quot;&gt;&lt;b&gt;Объект User&lt;/b&gt;&lt;/font&gt;" style="text;html=1;align=center;verticalAlign=middle;resizable=0;points=[];autosize=1;strokeColor=none;fillColor=none;" vertex="1" parent="1">
          <mxGeometry x="74" y="-250" width="140" height="40" as="geometry" />
        </mxCell>
        <mxCell id="OM-8t7XEtbAk3aILjfOQ-23" value="Account" style="rounded=0;whiteSpace=wrap;html=1;" vertex="1" parent="1">
          <mxGeometry x="80" y="1171" width="220" height="60" as="geometry" />
        </mxCell>
        <mxCell id="OM-8t7XEtbAk3aILjfOQ-24" value="------" style="rounded=0;whiteSpace=wrap;html=1;" vertex="1" parent="1">
          <mxGeometry x="300" y="1171" width="200" height="60" as="geometry" />
        </mxCell>
        <mxCell id="OM-8t7XEtbAk3aILjfOQ-25" value="Список транзакций" style="rounded=0;whiteSpace=wrap;html=1;" vertex="1" parent="1">
          <mxGeometry x="500" y="1171" width="250" height="60" as="geometry" />
        </mxCell>
        <mxCell id="OM-8t7XEtbAk3aILjfOQ-26" value="&lt;b&gt;&lt;font style=&quot;font-size: 13px;&quot;&gt;Родительская сущность&lt;/font&gt;&lt;/b&gt;" style="rounded=0;whiteSpace=wrap;html=1;" vertex="1" parent="1">
          <mxGeometry x="80" y="510" width="220" height="60" as="geometry" />
        </mxCell>
        <mxCell id="OM-8t7XEtbAk3aILjfOQ-27" value="&lt;b&gt;&lt;font style=&quot;font-size: 13px;&quot;&gt;Атрибут&lt;/font&gt;&lt;/b&gt;" style="rounded=0;whiteSpace=wrap;html=1;" vertex="1" parent="1">
          <mxGeometry x="300" y="510" width="200" height="60" as="geometry" />
        </mxCell>
        <mxCell id="OM-8t7XEtbAk3aILjfOQ-28" value="&lt;b&gt;&lt;font style=&quot;font-size: 13px;&quot;&gt;Описание&lt;/font&gt;&lt;/b&gt;" style="rounded=0;whiteSpace=wrap;html=1;" vertex="1" parent="1">
          <mxGeometry x="500" y="510" width="250" height="60" as="geometry" />
        </mxCell>
        <mxCell id="OM-8t7XEtbAk3aILjfOQ-29" value="&lt;font style=&quot;font-size: 19px;&quot;&gt;&lt;b&gt;Объект Account&lt;/b&gt;&lt;/font&gt;" style="text;html=1;align=center;verticalAlign=middle;resizable=0;points=[];autosize=1;strokeColor=none;fillColor=none;" vertex="1" parent="1">
          <mxGeometry x="74" y="470" width="170" height="40" as="geometry" />
        </mxCell>
        <mxCell id="OM-8t7XEtbAk3aILjfOQ-30" value="User" style="rounded=0;whiteSpace=wrap;html=1;" vertex="1" parent="1">
          <mxGeometry x="80" y="570" width="220" height="60" as="geometry" />
        </mxCell>
        <mxCell id="OM-8t7XEtbAk3aILjfOQ-31" value="-----" style="rounded=0;whiteSpace=wrap;html=1;" vertex="1" parent="1">
          <mxGeometry x="300" y="570" width="220" height="60" as="geometry" />
        </mxCell>
        <mxCell id="OM-8t7XEtbAk3aILjfOQ-32" value="Объект пользователь" style="rounded=0;whiteSpace=wrap;html=1;" vertex="1" parent="1">
          <mxGeometry x="500" y="570" width="250" height="60" as="geometry" />
        </mxCell>
        <mxCell id="OM-8t7XEtbAk3aILjfOQ-33" value="" style="rounded=0;whiteSpace=wrap;html=1;" vertex="1" parent="1">
          <mxGeometry x="80" y="690" width="220" height="60" as="geometry" />
        </mxCell>
        <mxCell id="OM-8t7XEtbAk3aILjfOQ-34" value="AccountType" style="rounded=0;whiteSpace=wrap;html=1;align=center;" vertex="1" parent="1">
          <mxGeometry x="300" y="690" width="200" height="60" as="geometry" />
        </mxCell>
        <mxCell id="OM-8t7XEtbAk3aILjfOQ-35" value="тип счета&amp;nbsp;&lt;div&gt;(текущий, сберегательный и т.д.)&lt;/div&gt;" style="rounded=0;whiteSpace=wrap;html=1;" vertex="1" parent="1">
          <mxGeometry x="500" y="690" width="250" height="60" as="geometry" />
        </mxCell>
        <mxCell id="OM-8t7XEtbAk3aILjfOQ-36" value="" style="rounded=0;whiteSpace=wrap;html=1;" vertex="1" parent="1">
          <mxGeometry x="80" y="630" width="220" height="60" as="geometry" />
        </mxCell>
        <mxCell id="OM-8t7XEtbAk3aILjfOQ-37" value="AccountNumber" style="rounded=0;whiteSpace=wrap;html=1;align=center;" vertex="1" parent="1">
          <mxGeometry x="300" y="630" width="200" height="60" as="geometry" />
        </mxCell>
        <mxCell id="OM-8t7XEtbAk3aILjfOQ-38" value="&amp;nbsp;номер счета" style="rounded=0;whiteSpace=wrap;html=1;" vertex="1" parent="1">
          <mxGeometry x="500" y="630" width="250" height="60" as="geometry" />
        </mxCell>
        <mxCell id="OM-8t7XEtbAk3aILjfOQ-39" value="" style="rounded=0;whiteSpace=wrap;html=1;" vertex="1" parent="1">
          <mxGeometry x="80" y="750" width="220" height="60" as="geometry" />
        </mxCell>
        <mxCell id="OM-8t7XEtbAk3aILjfOQ-40" value="Balance" style="rounded=0;whiteSpace=wrap;html=1;" vertex="1" parent="1">
          <mxGeometry x="300" y="750" width="200" height="60" as="geometry" />
        </mxCell>
        <mxCell id="OM-8t7XEtbAk3aILjfOQ-41" value="текущий баланс" style="rounded=0;whiteSpace=wrap;html=1;" vertex="1" parent="1">
          <mxGeometry x="500" y="750" width="250" height="60" as="geometry" />
        </mxCell>
        <mxCell id="OM-8t7XEtbAk3aILjfOQ-42" value="" style="rounded=0;whiteSpace=wrap;html=1;" vertex="1" parent="1">
          <mxGeometry x="80" y="810" width="220" height="60" as="geometry" />
        </mxCell>
        <mxCell id="OM-8t7XEtbAk3aILjfOQ-43" value="&lt;div&gt;Currency&lt;/div&gt;" style="rounded=0;whiteSpace=wrap;html=1;" vertex="1" parent="1">
          <mxGeometry x="300" y="810" width="200" height="60" as="geometry" />
        </mxCell>
        <mxCell id="OM-8t7XEtbAk3aILjfOQ-44" value="&lt;div&gt;валюта счета&lt;/div&gt;" style="rounded=0;whiteSpace=wrap;html=1;" vertex="1" parent="1">
          <mxGeometry x="500" y="810" width="250" height="60" as="geometry" />
        </mxCell>
        <mxCell id="OM-8t7XEtbAk3aILjfOQ-45" value="" style="rounded=0;whiteSpace=wrap;html=1;" vertex="1" parent="1">
          <mxGeometry x="80" y="870" width="220" height="60" as="geometry" />
        </mxCell>
        <mxCell id="OM-8t7XEtbAk3aILjfOQ-46" value="OpenDate" style="rounded=0;whiteSpace=wrap;html=1;" vertex="1" parent="1">
          <mxGeometry x="300" y="870" width="200" height="60" as="geometry" />
        </mxCell>
        <mxCell id="OM-8t7XEtbAk3aILjfOQ-47" value="&lt;div&gt;&lt;br&gt;&lt;/div&gt;&lt;div&gt;&amp;nbsp; дата открытия счета&lt;/div&gt;&lt;div&gt;&amp;nbsp;&lt;/div&gt;" style="rounded=0;whiteSpace=wrap;html=1;" vertex="1" parent="1">
          <mxGeometry x="500" y="870" width="250" height="60" as="geometry" />
        </mxCell>
        <mxCell id="OM-8t7XEtbAk3aILjfOQ-48" value="&lt;font style=&quot;font-size: 20px;&quot;&gt;&lt;b&gt;Объект&amp;nbsp;&lt;/b&gt;&lt;/font&gt;&lt;span style=&quot;font-size: 20px;&quot;&gt;&lt;b&gt;Transaction&lt;/b&gt;&lt;/span&gt;" style="text;html=1;align=center;verticalAlign=middle;resizable=0;points=[];autosize=1;strokeColor=none;fillColor=none;" vertex="1" parent="1">
          <mxGeometry x="74" y="1080" width="210" height="40" as="geometry" />
        </mxCell>
        <mxCell id="OM-8t7XEtbAk3aILjfOQ-49" value="&lt;b&gt;&lt;font style=&quot;font-size: 13px;&quot;&gt;Родительская сущность&lt;/font&gt;&lt;/b&gt;" style="rounded=0;whiteSpace=wrap;html=1;" vertex="1" parent="1">
          <mxGeometry x="80" y="1111" width="220" height="60" as="geometry" />
        </mxCell>
        <mxCell id="OM-8t7XEtbAk3aILjfOQ-50" value="&lt;b&gt;&lt;font style=&quot;font-size: 13px;&quot;&gt;Атрибут&lt;/font&gt;&lt;/b&gt;" style="rounded=0;whiteSpace=wrap;html=1;" vertex="1" parent="1">
          <mxGeometry x="300" y="1111" width="200" height="60" as="geometry" />
        </mxCell>
        <mxCell id="OM-8t7XEtbAk3aILjfOQ-51" value="&lt;b&gt;&lt;font style=&quot;font-size: 13px;&quot;&gt;Описание&lt;/font&gt;&lt;/b&gt;" style="rounded=0;whiteSpace=wrap;html=1;" vertex="1" parent="1">
          <mxGeometry x="500" y="1111" width="250" height="60" as="geometry" />
        </mxCell>
        <mxCell id="OM-8t7XEtbAk3aILjfOQ-52" value="" style="rounded=0;whiteSpace=wrap;html=1;" vertex="1" parent="1">
          <mxGeometry x="80" y="1231" width="220" height="60" as="geometry" />
        </mxCell>
        <mxCell id="OM-8t7XEtbAk3aILjfOQ-53" value="&lt;div&gt;TransactionDate&lt;/div&gt;" style="rounded=0;whiteSpace=wrap;html=1;" vertex="1" parent="1">
          <mxGeometry x="300" y="1231" width="200" height="60" as="geometry" />
        </mxCell>
        <mxCell id="OM-8t7XEtbAk3aILjfOQ-54" value="&lt;div&gt;дата и время транзакции&lt;/div&gt;" style="rounded=0;whiteSpace=wrap;html=1;" vertex="1" parent="1">
          <mxGeometry x="500" y="1231" width="250" height="60" as="geometry" />
        </mxCell>
        <mxCell id="OM-8t7XEtbAk3aILjfOQ-55" value="" style="rounded=0;whiteSpace=wrap;html=1;" vertex="1" parent="1">
          <mxGeometry x="80" y="1291" width="220" height="60" as="geometry" />
        </mxCell>
        <mxCell id="OM-8t7XEtbAk3aILjfOQ-56" value="&lt;div&gt;&amp;nbsp;&lt;span style=&quot;background-color: initial;&quot;&gt;Amount&lt;/span&gt;&lt;/div&gt;" style="rounded=0;whiteSpace=wrap;html=1;" vertex="1" parent="1">
          <mxGeometry x="300" y="1291" width="200" height="60" as="geometry" />
        </mxCell>
        <mxCell id="OM-8t7XEtbAk3aILjfOQ-57" value="&lt;div&gt;&lt;span style=&quot;background-color: initial;&quot;&gt;сумма транзакции&lt;/span&gt;&lt;/div&gt;" style="rounded=0;whiteSpace=wrap;html=1;" vertex="1" parent="1">
          <mxGeometry x="500" y="1291" width="250" height="60" as="geometry" />
        </mxCell>
        <mxCell id="OM-8t7XEtbAk3aILjfOQ-58" value="" style="rounded=0;whiteSpace=wrap;html=1;" vertex="1" parent="1">
          <mxGeometry x="80" y="1351" width="220" height="60" as="geometry" />
        </mxCell>
        <mxCell id="OM-8t7XEtbAk3aILjfOQ-59" value="&lt;div&gt;&lt;br&gt;&lt;/div&gt;&lt;div&gt;&amp;nbsp;TransactionType&lt;/div&gt;" style="rounded=0;whiteSpace=wrap;html=1;" vertex="1" parent="1">
          <mxGeometry x="300" y="1351" width="200" height="60" as="geometry" />
        </mxCell>
        <mxCell id="OM-8t7XEtbAk3aILjfOQ-60" value="&lt;div&gt;&lt;span style=&quot;background-color: initial;&quot;&gt;тип транзакции (дебет, кредит)&lt;/span&gt;&lt;/div&gt;" style="rounded=0;whiteSpace=wrap;html=1;" vertex="1" parent="1">
          <mxGeometry x="500" y="1351" width="250" height="60" as="geometry" />
        </mxCell>
        <mxCell id="OM-8t7XEtbAk3aILjfOQ-61" value="" style="rounded=0;whiteSpace=wrap;html=1;" vertex="1" parent="1">
          <mxGeometry x="84" y="20" width="220" height="60" as="geometry" />
        </mxCell>
        <mxCell id="OM-8t7XEtbAk3aILjfOQ-62" value="MiddelName" style="rounded=0;whiteSpace=wrap;html=1;" vertex="1" parent="1">
          <mxGeometry x="304" y="20" width="200" height="60" as="geometry" />
        </mxCell>
        <mxCell id="OM-8t7XEtbAk3aILjfOQ-63" value="Отчество" style="rounded=0;whiteSpace=wrap;html=1;align=center;" vertex="1" parent="1">
          <mxGeometry x="504" y="20" width="250" height="60" as="geometry" />
        </mxCell>
        <mxCell id="OM-8t7XEtbAk3aILjfOQ-64" value="" style="rounded=0;whiteSpace=wrap;html=1;" vertex="1" parent="1">
          <mxGeometry x="84" y="-40" width="220" height="60" as="geometry" />
        </mxCell>
        <mxCell id="OM-8t7XEtbAk3aILjfOQ-65" value="LastName" style="rounded=0;whiteSpace=wrap;html=1;" vertex="1" parent="1">
          <mxGeometry x="304" y="-40" width="200" height="60" as="geometry" />
        </mxCell>
        <mxCell id="OM-8t7XEtbAk3aILjfOQ-66" value="Фамилия&amp;nbsp;" style="rounded=0;whiteSpace=wrap;html=1;align=center;" vertex="1" parent="1">
          <mxGeometry x="504" y="-40" width="250" height="60" as="geometry" />
        </mxCell>
        <mxCell id="OM-8t7XEtbAk3aILjfOQ-67" value="" style="rounded=0;whiteSpace=wrap;html=1;fontStyle=1" vertex="1" parent="1">
          <mxGeometry x="85" y="380" width="220" height="60" as="geometry" />
        </mxCell>
        <mxCell id="OM-8t7XEtbAk3aILjfOQ-68" value="RegistrationData" style="rounded=0;whiteSpace=wrap;html=1;" vertex="1" parent="1">
          <mxGeometry x="305" y="380" width="200" height="60" as="geometry" />
        </mxCell>
        <mxCell id="OM-8t7XEtbAk3aILjfOQ-69" value="Список избранное" style="rounded=0;whiteSpace=wrap;html=1;" vertex="1" parent="1">
          <mxGeometry x="505" y="380" width="250" height="60" as="geometry" />
        </mxCell>
        <mxCell id="OM-8t7XEtbAk3aILjfOQ-70" value="" style="rounded=0;whiteSpace=wrap;html=1;" vertex="1" parent="1">
          <mxGeometry x="80" y="930" width="220" height="60" as="geometry" />
        </mxCell>
        <mxCell id="OM-8t7XEtbAk3aILjfOQ-71" value="&lt;div&gt;&lt;span style=&quot;background-color: initial;&quot;&gt;CloseDate&lt;/span&gt;&lt;/div&gt;" style="rounded=0;whiteSpace=wrap;html=1;" vertex="1" parent="1">
          <mxGeometry x="300" y="930" width="200" height="60" as="geometry" />
        </mxCell>
        <mxCell id="OM-8t7XEtbAk3aILjfOQ-72" value="&lt;div&gt;&lt;span style=&quot;background-color: initial;&quot;&gt;дата закрытия счета (если применимо)&lt;/span&gt;&lt;/div&gt;" style="rounded=0;whiteSpace=wrap;html=1;" vertex="1" parent="1">
          <mxGeometry x="500" y="930" width="250" height="60" as="geometry" />
        </mxCell>
        <mxCell id="OM-8t7XEtbAk3aILjfOQ-73" value="Получение чека по совершенной транзакции в мобильном приложении онлайн-банка" style="text;html=1;align=center;verticalAlign=middle;resizable=0;points=[];autosize=1;strokeColor=none;fillColor=none;" vertex="1" parent="1">
          <mxGeometry x="170" y="-310" width="500" height="30" as="geometry" />
        </mxCell>
        <mxCell id="OM-8t7XEtbAk3aILjfOQ-120" value="" style="rounded=0;whiteSpace=wrap;html=1;fontStyle=1" vertex="1" parent="1">
          <mxGeometry x="85" y="320" width="220" height="60" as="geometry" />
        </mxCell>
        <mxCell id="OM-8t7XEtbAk3aILjfOQ-121" value="Email" style="rounded=0;whiteSpace=wrap;html=1;" vertex="1" parent="1">
          <mxGeometry x="305" y="320" width="200" height="60" as="geometry" />
        </mxCell>
        <mxCell id="OM-8t7XEtbAk3aILjfOQ-122" value="Почта" style="rounded=0;whiteSpace=wrap;html=1;" vertex="1" parent="1">
          <mxGeometry x="505" y="320" width="250" height="60" as="geometry" />
        </mxCell>
        <mxCell id="OM-8t7XEtbAk3aILjfOQ-123" value="" style="rounded=0;whiteSpace=wrap;html=1;" vertex="1" parent="1">
          <mxGeometry x="80" y="1411" width="220" height="60" as="geometry" />
        </mxCell>
        <mxCell id="OM-8t7XEtbAk3aILjfOQ-124" value="&lt;div&gt;&amp;nbsp;Description&lt;/div&gt;" style="rounded=0;whiteSpace=wrap;html=1;" vertex="1" parent="1">
          <mxGeometry x="300" y="1411" width="200" height="60" as="geometry" />
        </mxCell>
        <mxCell id="OM-8t7XEtbAk3aILjfOQ-125" value="&lt;div&gt;&lt;span style=&quot;background-color: initial;&quot;&gt;описание транзакции&lt;/span&gt;&lt;/div&gt;" style="rounded=0;whiteSpace=wrap;html=1;" vertex="1" parent="1">
          <mxGeometry x="500" y="1411" width="250" height="60" as="geometry" />
        </mxCell>
        <mxCell id="OM-8t7XEtbAk3aILjfOQ-126" value="" style="rounded=0;whiteSpace=wrap;html=1;" vertex="1" parent="1">
          <mxGeometry x="80" y="1471" width="220" height="60" as="geometry" />
        </mxCell>
        <mxCell id="OM-8t7XEtbAk3aILjfOQ-127" value="&lt;div&gt;&lt;br&gt;&lt;/div&gt;&lt;div&gt;&lt;div&gt;&lt;span style=&quot;background-color: initial;&quot;&gt;CounterpartyAccount&lt;/span&gt;&lt;/div&gt;&lt;/div&gt;" style="rounded=0;whiteSpace=wrap;html=1;" vertex="1" parent="1">
          <mxGeometry x="300" y="1471" width="200" height="60" as="geometry" />
        </mxCell>
        <mxCell id="OM-8t7XEtbAk3aILjfOQ-128" value="&lt;div&gt;&lt;span style=&quot;background-color: initial;&quot;&gt;счет контрагента&lt;/span&gt;&lt;/div&gt;" style="rounded=0;whiteSpace=wrap;html=1;" vertex="1" parent="1">
          <mxGeometry x="500" y="1471" width="250" height="60" as="geometry" />
        </mxCell>
        <mxCell id="OM-8t7XEtbAk3aILjfOQ-129" value="" style="rounded=0;whiteSpace=wrap;html=1;" vertex="1" parent="1">
          <mxGeometry x="80" y="1531" width="220" height="60" as="geometry" />
        </mxCell>
        <mxCell id="OM-8t7XEtbAk3aILjfOQ-130" value="&lt;div&gt;&lt;span style=&quot;background-color: initial;&quot;&gt;CounterpartyName&lt;/span&gt;&lt;/div&gt;" style="rounded=0;whiteSpace=wrap;html=1;" vertex="1" parent="1">
          <mxGeometry x="300" y="1531" width="200" height="60" as="geometry" />
        </mxCell>
        <mxCell id="OM-8t7XEtbAk3aILjfOQ-131" value="&lt;span style=&quot;background-color: initial;&quot;&gt;&lt;div&gt;имя контрагента&lt;/div&gt;&lt;/span&gt;" style="rounded=0;whiteSpace=wrap;html=1;" vertex="1" parent="1">
          <mxGeometry x="500" y="1531" width="250" height="60" as="geometry" />
        </mxCell>
        <mxCell id="OM-8t7XEtbAk3aILjfOQ-132" value="" style="rounded=0;whiteSpace=wrap;html=1;" vertex="1" parent="1">
          <mxGeometry x="79" y="1591" width="220" height="60" as="geometry" />
        </mxCell>
        <mxCell id="OM-8t7XEtbAk3aILjfOQ-133" value="&lt;div&gt;&lt;span style=&quot;background-color: initial;&quot;&gt;Status&lt;/span&gt;&lt;/div&gt;" style="rounded=0;whiteSpace=wrap;html=1;" vertex="1" parent="1">
          <mxGeometry x="299" y="1591" width="200" height="60" as="geometry" />
        </mxCell>
        <mxCell id="OM-8t7XEtbAk3aILjfOQ-134" value="&lt;div&gt;&lt;span style=&quot;background-color: initial;&quot;&gt;статус транзакции (успешно, отклонено и т.д.)&lt;/span&gt;&lt;/div&gt;" style="rounded=0;whiteSpace=wrap;html=1;" vertex="1" parent="1">
          <mxGeometry x="499" y="1591" width="250" height="60" as="geometry" />
        </mxCell>
        <mxCell id="OM-8t7XEtbAk3aILjfOQ-223" value="Transaction" style="rounded=0;whiteSpace=wrap;html=1;align=center;" vertex="1" parent="1">
          <mxGeometry x="78" y="1776" width="220" height="60" as="geometry" />
        </mxCell>
        <mxCell id="OM-8t7XEtbAk3aILjfOQ-224" value="-----" style="rounded=0;whiteSpace=wrap;html=1;" vertex="1" parent="1">
          <mxGeometry x="298" y="1776" width="200" height="60" as="geometry" />
        </mxCell>
        <mxCell id="OM-8t7XEtbAk3aILjfOQ-225" value="Объект документы" style="rounded=0;whiteSpace=wrap;html=1;align=center;" vertex="1" parent="1">
          <mxGeometry x="498" y="1776" width="250" height="60" as="geometry" />
        </mxCell>
        <mxCell id="OM-8t7XEtbAk3aILjfOQ-226" value="&lt;b&gt;&lt;font style=&quot;font-size: 13px;&quot;&gt;Родительская сущность&lt;/font&gt;&lt;/b&gt;" style="rounded=0;whiteSpace=wrap;html=1;" vertex="1" parent="1">
          <mxGeometry x="78" y="1716" width="220" height="60" as="geometry" />
        </mxCell>
        <mxCell id="OM-8t7XEtbAk3aILjfOQ-227" value="&lt;b&gt;&lt;font style=&quot;font-size: 13px;&quot;&gt;Атрибут&lt;/font&gt;&lt;/b&gt;" style="rounded=0;whiteSpace=wrap;html=1;" vertex="1" parent="1">
          <mxGeometry x="298" y="1716" width="200" height="60" as="geometry" />
        </mxCell>
        <mxCell id="OM-8t7XEtbAk3aILjfOQ-228" value="&lt;b&gt;&lt;font style=&quot;font-size: 13px;&quot;&gt;Описание&lt;/font&gt;&lt;/b&gt;" style="rounded=0;whiteSpace=wrap;html=1;" vertex="1" parent="1">
          <mxGeometry x="498" y="1716" width="250" height="60" as="geometry" />
        </mxCell>
        <mxCell id="OM-8t7XEtbAk3aILjfOQ-229" value="" style="rounded=0;whiteSpace=wrap;html=1;" vertex="1" parent="1">
          <mxGeometry x="78" y="1836" width="220" height="60" as="geometry" />
        </mxCell>
        <mxCell id="OM-8t7XEtbAk3aILjfOQ-230" value="&lt;div&gt;ReceiptDate&lt;/div&gt;&lt;div&gt;&lt;br&gt;&lt;/div&gt;" style="rounded=0;whiteSpace=wrap;html=1;" vertex="1" parent="1">
          <mxGeometry x="298" y="1836" width="200" height="60" as="geometry" />
        </mxCell>
        <mxCell id="OM-8t7XEtbAk3aILjfOQ-231" value="дата создания чека" style="rounded=0;whiteSpace=wrap;html=1;align=center;" vertex="1" parent="1">
          <mxGeometry x="498" y="1836" width="250" height="60" as="geometry" />
        </mxCell>
        <mxCell id="OM-8t7XEtbAk3aILjfOQ-244" value="&lt;font style=&quot;font-size: 19px;&quot;&gt;&lt;b&gt;Объект&amp;nbsp;&lt;/b&gt;&lt;/font&gt;&lt;span style=&quot;font-size: 19px;&quot;&gt;&lt;b&gt;Receipt&lt;/b&gt;&lt;/span&gt;" style="text;html=1;align=center;verticalAlign=middle;resizable=0;points=[];autosize=1;strokeColor=none;fillColor=none;" vertex="1" parent="1">
          <mxGeometry x="74" y="1680" width="170" height="40" as="geometry" />
        </mxCell>
        <mxCell id="OM-8t7XEtbAk3aILjfOQ-283" value="" style="rounded=0;whiteSpace=wrap;html=1;" vertex="1" parent="1">
          <mxGeometry x="78" y="1956" width="220" height="60" as="geometry" />
        </mxCell>
        <mxCell id="OM-8t7XEtbAk3aILjfOQ-284" value="&lt;div&gt;&lt;span style=&quot;background-color: initial;&quot;&gt;Format&lt;/span&gt;&lt;/div&gt;" style="rounded=0;whiteSpace=wrap;html=1;" vertex="1" parent="1">
          <mxGeometry x="298" y="1956" width="200" height="60" as="geometry" />
        </mxCell>
        <mxCell id="OM-8t7XEtbAk3aILjfOQ-285" value="&lt;div&gt;формат файла чека (PDF, PNG и т.д.)&lt;/div&gt;" style="rounded=0;whiteSpace=wrap;html=1;align=center;" vertex="1" parent="1">
          <mxGeometry x="498" y="1956" width="250" height="60" as="geometry" />
        </mxCell>
        <mxCell id="OM-8t7XEtbAk3aILjfOQ-286" value="" style="rounded=0;whiteSpace=wrap;html=1;" vertex="1" parent="1">
          <mxGeometry x="78" y="1896" width="220" height="60" as="geometry" />
        </mxCell>
        <mxCell id="OM-8t7XEtbAk3aILjfOQ-287" value="&lt;div&gt;&lt;span style=&quot;background-color: initial;&quot;&gt;ReceiptData&lt;/span&gt;&lt;/div&gt;" style="rounded=0;whiteSpace=wrap;html=1;" vertex="1" parent="1">
          <mxGeometry x="298" y="1896" width="200" height="60" as="geometry" />
        </mxCell>
        <mxCell id="OM-8t7XEtbAk3aILjfOQ-288" value="данные чека (может быть ссылка на файл или бинарные данные)" style="rounded=0;whiteSpace=wrap;html=1;align=center;" vertex="1" parent="1">
          <mxGeometry x="498" y="1896" width="250" height="60" as="geometry" />
        </mxCell>
      </root>
    </mxGraphModel>
  </diagram>
</mxfile>
